# xmcd CD database file
#
# Track frame offsets:
#	150
#	13302
#	34762
#	54317
#	76365
#	98867
#	118650
#	140042
#	162622
#	188656
#	212403
#
# Disc length: 3142 seconds
#
# Revision: 3
# Processed by: cddbd v1.5.1PL0 Copyright (c) Steve Scherf et al.
# Submitted via: CDex 1.51
#
DISCID=950c440b
DTITLE=鬼束ちひろ - Sugar High (Initial Pressing Limited Edition)
DYEAR=2002
DGENRE=R&B
TTITLE0=Not Your God
TTITLE1=声
TTITLE2=Rebel Luck
TTITLE3=Tiger In My Love
TTITLE4=Castle Imitation(Album Version)
TTITLE5=漂流の羽根 (NHK月曜ドラマ「結婚泥棒」片尾歌)
TTITLE6=砂の盾
TTITLE7=King Of Solitude
TTITLE8=Borderline
TTITLE9=Castle Imitation
TTITLE10=Castle Imitation (Inst.)
EXTD=Initial pressing limited Edition YEAR: 2002
EXTT0=
EXTT1=
EXTT2=
EXTT3=
EXTT4=
EXTT5=
EXTT6=
EXTT7=
EXTT8=
EXTT9=
EXTT10=
PLAYORDER=
